HIERARCHY
ROOT Hips
{
    OFFSET   0.000000   0.000000   0.000000
    CHANNELS 6 Xposition Yposition Zposition Zrotation Xrotation Yrotation
    JOINT Chest
    {
        OFFSET   0.000000   8.007230   0.000000
        CHANNELS 3 Zrotation Xrotation Yrotation
        JOINT Chest2
        {
            OFFSET   0.000000  22.077100   0.000000
            CHANNELS 3 Zrotation Xrotation Yrotation
            JOINT Neck
            {
                OFFSET   0.000000  23.254700   0.000000
                CHANNELS 3 Zrotation Xrotation Yrotation
                JOINT Head
                {
                    OFFSET   0.000010  14.370000   1.956610
                    CHANNELS 3 Zrotation Xrotation Yrotation
                    End Site
                    {
                        OFFSET   0.000000  19.566000   0.000000
                    }
                }
            }
            JOINT LeftCollar
            {
                OFFSET   3.911900  19.017000  -0.467063
                CHANNELS 3 Zrotation Xrotation Yrotation
                JOINT LeftShoulder
                {
                    OFFSET  10.383700   0.000000   0.000000
                    CHANNELS 3 Zrotation Xrotation Yrotation
                    JOINT LeftElbow
                    {
                        OFFSET  26.662100   0.001671   0.000522
                        CHANNELS 3 Zrotation Xrotation Yrotation
                        JOINT LeftWrist
                        {
                            OFFSET  28.869000   0.000037  -0.000114
                            CHANNELS 3 Zrotation Xrotation Yrotation
                            JOINT LeftFinger0
                            {
                                OFFSET   2.044650  -2.323450   3.252850
                                CHANNELS 3 Zrotation Xrotation Yrotation
                                JOINT LeftFinger01
                                {
                                    OFFSET   3.088140   0.000000   0.000000
                                    CHANNELS 3 Zrotation Xrotation Yrotation
                                    JOINT LeftFinger02
                                    {
                                        OFFSET   2.639460   0.000000   0.000000
                                        CHANNELS 3 Zrotation Xrotation Yrotation
                                        End Site
                                        {
                                            OFFSET   2.582190   0.000000   0.000000
                                        }
                                    }
                                }
                            }
                            JOINT LeftFinger1
                            {
                                OFFSET   8.364480   0.000000   3.252850
                                CHANNELS 3 Zrotation Xrotation Yrotation
                                JOINT LeftFinger11
                                {
                                    OFFSET   4.646930   0.000000   0.000000
                                    CHANNELS 3 Zrotation Xrotation Yrotation
                                    JOINT LeftFinger12
                                    {
                                        OFFSET   2.323470   0.000000   0.000000
                                        CHANNELS 3 Zrotation Xrotation Yrotation
                                        End Site
                                        {
                                            OFFSET   2.273050   0.000000   0.000000
                                        }
                                    }
                                }
                            }
                            JOINT LeftFinger2
                            {
                                OFFSET   8.364490   0.000016   1.078090
                                CHANNELS 3 Zrotation Xrotation Yrotation
                                JOINT LeftFinger21
                                {
                                    OFFSET   5.111620   0.000000   0.000000
                                    CHANNELS 3 Zrotation Xrotation Yrotation
                                    JOINT LeftFinger22
                                    {
                                        OFFSET   2.788150   0.000013   0.000000
                                        CHANNELS 3 Zrotation Xrotation Yrotation
                                        End Site
                                        {
                                            OFFSET   2.727660   0.000000   0.000000
                                        }
                                    }
                                }
                            }
                            JOINT LeftFinger3
                            {
                                OFFSET   7.899780   0.000016  -1.078090
                                CHANNELS 3 Zrotation Xrotation Yrotation
                                JOINT LeftFinger31
                                {
                                    OFFSET   4.646930   0.000000   0.000000
                                    CHANNELS 3 Zrotation Xrotation Yrotation
                                    JOINT LeftFinger32
                                    {
                                        OFFSET   2.323470   0.000000   0.000000
                                        CHANNELS 3 Zrotation Xrotation Yrotation
                                        End Site
                                        {
                                            OFFSET   2.273050   0.000000   0.000000
                                        }
                                    }
                                }
                            }
                            JOINT LeftFinger4
                            {
                                OFFSET   7.435080   0.000000  -3.252850
                                CHANNELS 3 Zrotation Xrotation Yrotation
                                JOINT LeftFinger41
                                {
                                    OFFSET   3.717550   0.000000   0.000000
                                    CHANNELS 3 Zrotation Xrotation Yrotation
                                    JOINT LeftFinger42
                                    {
                                        OFFSET   1.858760   0.000000   0.000000
                                        CHANNELS 3 Zrotation Xrotation Yrotation
                                        End Site
                                        {
                                            OFFSET   1.818440   0.000000   0.000000
                                        }
                                    }
                                }
                            }
                        }
                    }
                }
            }
            JOINT RightCollar
            {
                OFFSET  -3.911900  19.017000  -0.467064
                CHANNELS 3 Zrotation Xrotation Yrotation
                JOINT RightShoulder
                {
                    OFFSET -10.383700   0.000000   0.000000
                    CHANNELS 3 Zrotation Xrotation Yrotation
                    JOINT RightElbow
                    {
                        OFFSET -26.662100   0.001633   0.000260
                        CHANNELS 3 Zrotation Xrotation Yrotation
                        JOINT RightWrist
                        {
                            OFFSET -28.869000  -0.000045  -0.000080
                            CHANNELS 3 Zrotation Xrotation Yrotation
                            JOINT RightFinger0
                            {
                                OFFSET  -2.044660  -2.323490   3.252850
                                CHANNELS 3 Zrotation Xrotation Yrotation
                                JOINT RightFinger01
                                {
                                    OFFSET  -3.088140   0.000000   0.000000
                                    CHANNELS 3 Zrotation Xrotation Yrotation
                                    JOINT RightFinger02
                                    {
                                        OFFSET  -2.639450   0.000000   0.000000
                                        CHANNELS 3 Zrotation Xrotation Yrotation
                                        End Site
                                        {
                                            OFFSET  -2.582190   0.000000   0.000000
                                        }
                                    }
                                }
                            }
                            JOINT RightFinger1
                            {
                                OFFSET  -8.364480   0.000000   3.252850
                                CHANNELS 3 Zrotation Xrotation Yrotation
                                JOINT RightFinger11
                                {
                                    OFFSET  -4.646920   0.000000   0.000000
                                    CHANNELS 3 Zrotation Xrotation Yrotation
                                    JOINT RightFinger12
                                    {
                                        OFFSET  -2.323470   0.000000   0.000000
                                        CHANNELS 3 Zrotation Xrotation Yrotation
                                        End Site
                                        {
                                            OFFSET  -2.273050   0.000000   0.000000
                                        }
                                    }
                                }
                            }
                            JOINT RightFinger2
                            {
                                OFFSET  -8.364480   0.000000   1.078090
                                CHANNELS 3 Zrotation Xrotation Yrotation
                                JOINT RightFinger21
                                {
                                    OFFSET  -5.111610   0.000000   0.000000
                                    CHANNELS 3 Zrotation Xrotation Yrotation
                                    JOINT RightFinger22
                                    {
                                        OFFSET  -2.788160   0.000000   0.000000
                                        CHANNELS 3 Zrotation Xrotation Yrotation
                                        End Site
                                        {
                                            OFFSET  -2.727660   0.000000   0.000000
                                        }
                                    }
                                }
                            }
                            JOINT RightFinger3
                            {
                                OFFSET  -7.899780   0.000000  -1.078090
                                CHANNELS 3 Zrotation Xrotation Yrotation
                                JOINT RightFinger31
                                {
                                    OFFSET  -4.646930   0.000000   0.000000
                                    CHANNELS 3 Zrotation Xrotation Yrotation
                                    JOINT RightFinger32
                                    {
                                        OFFSET  -2.323470   0.000000   0.000000
                                        CHANNELS 3 Zrotation Xrotation Yrotation
                                        End Site
                                        {
                                            OFFSET  -2.273050   0.000000   0.000000
                                        }
                                    }
                                }
                            }
                            JOINT RightFinger4
                            {
                                OFFSET  -7.435090   0.000000  -3.252850
                                CHANNELS 3 Zrotation Xrotation Yrotation
                                JOINT RightFinger41
                                {
                                    OFFSET  -3.717550   0.000000   0.000000
                                    CHANNELS 3 Zrotation Xrotation Yrotation
                                    JOINT RightFinger42
                                    {
                                        OFFSET  -1.858760   0.000000   0.000000
                                        CHANNELS 3 Zrotation Xrotation Yrotation
                                        End Site
                                        {
                                            OFFSET  -1.818440   0.000000   0.000000
                                        }
                                    }
                                }
                            }
                        }
                    }
                }
            }
        }
    }
    JOINT LeftHip
    {
        OFFSET   9.782990   0.000000   0.000000
        CHANNELS 3 Zrotation Xrotation Yrotation
        JOINT LeftKnee
        {
            OFFSET  -0.000063 -41.789100   0.001657
            CHANNELS 3 Zrotation Xrotation Yrotation
            JOINT LeftAnkle
            {
                OFFSET   0.000078 -41.133200  -0.000113
                CHANNELS 3 Zrotation Xrotation Yrotation
                JOINT LeftToe
                {
                    OFFSET   0.000000  -6.358970  14.674500
                    CHANNELS 3 Zrotation Xrotation Yrotation
                    End Site
                    {
                        OFFSET   0.000000   0.000000   3.913200
                    }
                }
            }
        }
    }
    JOINT RightHip
    {
        OFFSET  -9.782990   0.000000   0.000000
        CHANNELS 3 Zrotation Xrotation Yrotation
        JOINT RightKnee
        {
            OFFSET   0.000053 -41.789200   0.000277
            CHANNELS 3 Zrotation Xrotation Yrotation
            JOINT RightAnkle
            {
                OFFSET   0.000030 -41.133200  -0.000150
                CHANNELS 3 Zrotation Xrotation Yrotation
                JOINT RightToe
                {
                    OFFSET   0.000000  -6.358960  14.674500
                    CHANNELS 3 Zrotation Xrotation Yrotation
                    End Site
                    {
                        OFFSET   0.000000   0.000000   3.913200
                    }
                }
            }
        }
    }
}
MOTION
Frames: 4
Frame Time:   0.016667
 -1.092940  89.990800  -0.413881  -0.578604  -2.485880   2.596910  -0.174238   3.313770  -1.832700  -0.242640   6.631420  -3.664510   1.239240  -1.866460   0.043102   2.045000  -3.782320   5.975080  -6.032420  -2.593220   6.924070 -68.552800  20.698800   0.598042  -3.808280 -11.219000 -16.027200  10.043100 -14.124000   5.349160  42.947300  34.751200 -66.130500 -27.113800  -0.003571  -0.000324  -8.556890   0.002288   0.004264 -35.268400   2.523600  -3.562660 -28.920200   0.000575   0.001327 -20.244100   0.005212  -0.002384 -28.378800  -3.983310   7.341460 -37.840800   0.003321   0.001123 -25.201900  -0.000771   0.001365 -27.961400  -3.933520   7.371160 -33.483500  -0.000929   0.001275 -22.300100  -0.001835   0.007985 -33.480100  -4.627050   6.962550 -50.642300  -0.000348   0.003501 -33.727900  -0.000507   0.000363  10.362000   2.888830  10.261500  64.606600  11.108400  -0.630031   2.164730  -5.964050  11.733600 -13.516900 -24.392700  -2.421940 -39.720600  36.979700  80.135100  20.066000  -0.002996  -0.001722   5.033000  -0.001483   0.006980  34.169700   0.171335   0.252276  27.957400  -0.002575   0.004687  19.570200   0.000983   0.003698  28.016700  -3.739430  -6.988050  33.761100   0.005913  -0.008016  22.484900  -0.010750  -0.006339  28.555700  -3.805410  -6.952470  41.784600  -0.003854   0.010304  27.828600   0.001131   0.007590  33.337700  -4.372770  -6.611410  50.385600  -0.004456   0.000598  33.556900   0.004195   0.009835   1.205550   1.987230   2.714170  -0.113588   1.595060  14.216000  -4.672940  -2.769730   3.022170   0.000000   0.000000  -0.000000   1.761100   2.345790  -5.716290  -0.227890   2.503070  -7.139850  -7.640750   0.376173   3.142530  -0.000000   0.000000  -0.000000
 -1.073740  89.990800  -0.404493  -0.578258  -2.500110   2.593230  -0.170559   3.313770  -1.836770  -0.235020   6.631360  -3.672890   1.242720  -1.867060   0.043116   2.049490  -3.782620   6.009280  -6.055350  -2.600830   6.916580 -68.580800  20.658100   0.625249  -3.812590 -11.247600 -16.009600  10.028000 -14.111500   5.349450  42.935800  34.731100 -66.098600 -27.113500  -0.003578  -0.000324  -8.556750   0.002289   0.004270 -35.270400   2.505740  -3.537310 -28.920400   0.000571   0.001316 -20.244300   0.005213  -0.002392 -28.378700  -3.983350   7.341590 -37.845400   0.003317   0.001112 -25.205000  -0.000777   0.001349 -27.960000  -3.933580   7.371290 -33.485900  -0.000932   0.001275 -22.301700  -0.001844   0.007992 -33.483600  -4.627270   6.962460 -50.647700  -0.000359   0.003507 -33.731500  -0.000521   0.000378  10.380900   2.879980  10.299400  64.592700  11.062500  -0.658792   2.151370  -6.015290  11.708200 -13.494500 -24.384900  -2.421850 -39.756700  36.983400  80.131500  20.084700  -0.002988  -0.001723   5.042360  -0.001476   0.006964  34.136400   0.155991   0.230067  27.930100  -0.002572   0.004679  19.551100   0.000982   0.003692  28.007600  -3.746210  -7.003250  33.695500   0.005923  -0.008026  22.441200  -0.010750  -0.006348  28.553800  -3.813210  -6.967130  41.727100  -0.003852   0.010294  27.790300   0.001127   0.007581  33.324600  -4.380600  -6.626130  50.367200  -0.004447   0.000589  33.544600   0.004191   0.009828   1.203440   2.001590   2.714480  -0.115744   1.608950  14.221900  -4.668000  -2.783590   3.022210   0.000000   0.000000  -0.000000   1.728380   2.360550  -5.743260  -0.194319   2.516850  -7.096400  -7.640340   0.366445   3.127190  -0.000000   0.000000  -0.000000
 -1.042610  89.990700  -0.389944  -0.577621  -2.525290   2.584930  -0.164387   3.313860  -1.844090  -0.222223   6.631280  -3.687910   1.249510  -1.870060   0.043131   2.058260  -3.785950   6.074930  -6.095190  -2.615390   6.909130 -68.624900  20.597200   0.663015  -3.820030 -11.298600 -15.977100  10.007000 -14.082000   5.352820  42.923800  34.711800 -66.065900 -27.113300  -0.003585  -0.000327  -8.556620   0.002290   0.004286 -35.271200   2.487860  -3.511960 -28.920700   0.000562   0.001287 -20.244500   0.005215  -0.002410 -28.378600  -3.983430   7.341790 -37.850000   0.003303   0.001086 -25.208100  -0.000791   0.001307 -27.957200  -3.933670   7.371490 -33.488300  -0.000938   0.001272 -22.303200  -0.001869   0.008009 -33.487200  -4.627500   6.962370 -50.653100  -0.000383   0.003523 -33.735100  -0.000559   0.000413  10.416600   2.863090  10.368200  64.558200  10.976200  -0.687450   2.126120  -6.099010  11.650400 -13.471200 -24.354900  -2.421670 -39.791400  36.993600  80.125600  20.103500  -0.002975  -0.001734   5.051720  -0.001461   0.006937  34.092600   0.140648   0.207858  27.894200  -0.002563   0.004660  19.525900   0.000975   0.003678  27.994800  -3.755710  -7.024540  33.604100   0.005947  -0.008056  22.380400  -0.010750  -0.006372  28.551100  -3.824140  -6.987660  41.650000  -0.003847   0.010267  27.738900   0.001117   0.007559  33.310700  -4.391790  -6.646620  50.348800  -0.004421   0.000566  33.532400   0.004179   0.009806   1.199030   2.028730   2.714810  -0.120043   1.630880  14.231300  -4.660060  -2.807440   3.022280  -0.000000   0.000000  -0.000000   1.673980   2.385280  -5.782760  -0.140089   2.540930  -7.032390  -7.639680   0.349677   3.110480   0.000000   0.000000   0.000000
 -1.019480  89.990600  -0.381086  -0.575904  -2.547520   2.573350  -0.159933   3.314090  -1.851240  -0.212865   6.631570  -3.702510   1.257980  -1.877080   0.043063   2.069970  -3.799510   6.149220  -6.131840  -2.630780   6.912870 -68.652200  20.557100   0.678121  -3.831050 -11.359100 -15.948500   9.999850 -14.042700   5.362870  42.958500  34.761100 -66.108300 -27.113900  -0.003563  -0.000346  -8.556950   0.002281   0.004310 -35.246000   2.487830  -3.514540 -28.900600   0.000553   0.001241 -20.230400   0.005217  -0.002438 -28.378400  -3.983540   7.341870 -37.845100   0.003279   0.001048 -25.204800  -0.000815   0.001241 -27.953500  -3.933760   7.371570 -33.452400  -0.000947   0.001265 -22.279300  -0.001908   0.008035 -33.457200  -4.625870   6.963100 -50.608000  -0.000416   0.003548 -33.705000  -0.000620   0.000464  10.457600   2.844150  10.438200  64.511900  10.881900  -0.685022   2.102400  -6.176060  11.571400 -13.480000 -24.290600  -2.435970 -39.793800  37.010500  80.141000  20.090800  -0.002968  -0.001764   5.045390  -0.001443   0.006915  34.082300   0.146313   0.216238  27.885700  -0.002548   0.004629  19.520000   0.000963   0.003656  27.990500  -3.758440  -7.030890  33.573100   0.005984  -0.008104  22.359700  -0.010749  -0.006408  28.550300  -3.827390  -6.993720  41.634800  -0.003838   0.010219  27.728800   0.001103   0.007527  33.310700  -4.395490  -6.652430  50.349800  -0.004378   0.000531  33.533000   0.004159   0.009770   1.193350   2.055310   2.713440  -0.125041   1.649120  14.236400  -4.654460  -2.828910   3.022360  -0.000000   0.000000   0.000000   1.629420   2.403970  -5.805900  -0.099767   2.563110  -6.993550  -7.639120   0.334939   3.108890   0.000000   0.000000   0.000000
